<svg id="Layer_1" data-name="Layer 1" xmlns="http://www.w3.org/2000/svg" viewBox="0 0 1024 250"><defs><style>.cls-1{fill:#fff;}.cls-2{fill:#216db6;}.cls-2,.cls-3,.cls-4,.cls-5,.cls-6,.cls-7{stroke:#231f20;stroke-miterlimit:10;stroke-width:6.5px;}.cls-3{fill:#dc3f3f;}.cls-4{fill:#ddcc3e;}.cls-5{fill:#4eb748;}.cls-6{fill:#5a86c4;}.cls-7{fill:#cde6f8;}</style></defs><title>BigfootDSHeader_White</title><path class="cls-1" d="M325.48,141.35q0,16.79-10.13,28.84a34.1,34.1,0,0,1-27.2,12.64q-6.17,0-18.57-.29T251,182.25q-4.54,0-13.65.39t-13.65.39q-2.41,0-2.41-2.22,0-10.61,1-31.88t1-31.88q0-11.19-1-33.62t-1-33.62q0-2.12,2.41-2.12,8.59,0,25.85.1t25.95.1q20.26,0,32.32,7.52,14.66,9.17,14.66,28.46a29.26,29.26,0,0,1-3.86,13.84,29.35,29.35,0,0,1-9.36,10.85q-2.8,1.83-2.8,2.41t2.8,2.12A30.19,30.19,0,0,1,321,125,32.84,32.84,0,0,1,325.48,141.35ZM298.37,86q0-13.6-12.15-18.33-7.33-2.8-24-2.8Q246,64.85,246,67.26q0,3.18-.29,9.55t-.29,9.65q0,2.22.1,6.85t.1,6.95q0,2.8,21.8,2.8Q298.37,103.05,298.37,86Zm2.6,54.41q0-11.77-10.51-15.92-6.66-2.7-20.74-2.7-24.31,0-24.31,2.6v15.82q0,3.47.19,10.61t.19,10.71q0,1,6.17,1.45t18.33.48q15.24,0,21.9-4Q301,154.28,301,140.39Z"/><path class="cls-1" d="M366.86,67.65q0,11.87-13.22,11.87-13.41,0-13.41-11.87a11,11,0,0,1,4.15-8.78A14.62,14.62,0,0,1,363,59,11,11,0,0,1,366.86,67.65Zm-.68,26.14q0,7.43-.92,22.43t-.92,22.53q0,7,.29,21.08t.29,21q0,2-1.74,2H344.39q-2,0-2-4,0-6.66.34-20t.34-20.11q0-7.52-1.11-22.57T340.82,93.6q0-1.64,2-1.64a44.94,44.94,0,0,1,5.35.48,31,31,0,0,0,10.9,0,45.09,45.09,0,0,1,5.45-.48Q366.19,92,366.19,93.79Z"/><path class="cls-1" d="M470.28,93.12q0,11.58-.19,34.78t-.19,34.78q0,23-9.84,33.86-10.32,11.58-33,11.58-21.9,0-35.4-8.3-2.12-1.35-2.12-2.32,0,1.06,2.89-14.28.29-1.64,1.35-1.64a2.59,2.59,0,0,1,1.25.48q14.47,8.3,29,8.3,9.55,0,15.82-4.24,7.24-4.82,7.24-14,0-2-.39-9.07-10.71,13-27.2,13-17.85,0-29.33-12.83-11-12.35-11-30.39,0-18.33,10.61-31.16Q401.11,88,419.15,88q15.92,0,25.27,12.25,1.54,2,2.22,2t.77-1.74q0-1.25-.19-4t-.19-4.1q0-5.79,1.16-5.79,1,0,10.42,1.78t10.32,2.17Q470.28,91.09,470.28,93.12Zm-23.15,39.74q0-10.8-5.88-18.33a21.5,21.5,0,0,0-33.86.1q-5.88,7.52-5.88,18.23a28.48,28.48,0,0,0,6,18.14A21.13,21.13,0,0,0,441,151,28.2,28.2,0,0,0,447.13,132.86Z"/><path class="cls-1" d="M537.8,59.35q0,1.16-1.74,1.35-4.73.48-9.36.87-5.5.77-8.39,3.86-4.73,5.11-4.73,25.95,3.18,0,10,.19t10.32.19q2.32,0,2.32,1.74,0,2.7.19,8.05t.19,8q0,1.83-1.93,1.83-3.38,0-10.23-.34t-10.13-.34v28.84q0,6.75.48,20.45t.48,20.45q0,2.6-1.93,2.6H495.74q-2.51,0-2.51-3V113.67q0-2.6-5.88-2.51-6.37.1-6.75-.48-.29-.29-.29-3.57,0-2.12-.19-6.32t-.19-6.32q0-2,12.25-2.7-.29-6.17-.29-10,0-17.07,6.08-25,5.4-7.14,15.82-11.19a52.69,52.69,0,0,1,19.39-3.67A1.38,1.38,0,0,1,534.52,43q.09.19,1.69,8.15T537.8,59.35Z"/><path class="cls-1" d="M633.5,136q0,20.16-13.22,34.44a45.55,45.55,0,0,1-67,.1Q540,156.4,540,136.24t13.22-34.34a46,46,0,0,1,66.95,0Q633.5,116,633.5,136Zm-20.35.19a29.48,29.48,0,0,0-7.24-20.07,24.06,24.06,0,0,0-19.1-8.78,24.45,24.45,0,0,0-19.2,8.68,31.41,31.41,0,0,0,.1,40.23,24.82,24.82,0,0,0,38.2,0A29.94,29.94,0,0,0,613.14,136.24Z"/><path class="cls-1" d="M734.5,136q0,20.16-13.22,34.44a45.55,45.55,0,0,1-67,.1Q641,156.4,641,136.24t13.22-34.34a46,46,0,0,1,66.95,0Q734.5,116,734.5,136Zm-20.35.19a29.48,29.48,0,0,0-7.24-20.07,24.06,24.06,0,0,0-19.1-8.78,24.45,24.45,0,0,0-19.2,8.68,31.41,31.41,0,0,0,.1,40.23,24.82,24.82,0,0,0,38.2,0A29.94,29.94,0,0,0,714.15,136.24Z"/><path class="cls-1" d="M801.83,165.27q0,2.12-.39,5.79-.48,4.54-.58,5.88a7.49,7.49,0,0,1-.29,2.12,4,4,0,0,1-1.83,1.35q-7.91,3.76-24.89,3.76-22.57,0-22.57-20.45,0-8.2.39-24.65t.39-24.65q0-4-4-4.24-3.57,0-7-.1-2-.48-2-7.91a47.52,47.52,0,0,1,.39-5.88q.29-2.32,3.09-2.8,2.41,0,4.73-.1,4.44-.19,4.44-4t-.24-11.77q-.24-7.91-.24-11.87,0-7,2.7-7,.87,0,18.14,3,2.22.29,2.22,2.12,0,4.25-.63,12.73T773,89.36q0,2.8,2.6,2.8h23.15q1.64,0,1.64,1.16A32,32,0,0,1,800,97a31.82,31.82,0,0,0-.34,3.81q0,1.45.1,4.44t.1,4.44q0,1.83-2.7,1.83-3.86,0-11.67-.53t-11.67-.53q-.77,0-1.16,5.5-.48,6.85-.48,19.2v14.37q0,8.3,1.54,11.58,2.32,5,9.55,5a43.75,43.75,0,0,0,8.78-1.3,43.55,43.55,0,0,1,8.59-1.3Q801.83,163.54,801.83,165.27Z"/><path class="cls-1" d="M940.55,114.63q0,28.36-18.23,49.2-16.11,18.62-45.24,19.58-5.6.19-30.77.19-4.73,0-14.23-.29T817.85,183q-2.8,0-2.8-2.22,0-10.61.82-31.88t.82-31.88q0-11.09-.82-33.23T815,50.67q0-2,2.8-2.41,6.85-.77,22.48-.77,29.71,0,38.49.87,22.86,2.32,35.79,11.58,12.15,8.68,19.2,24.31A72.32,72.32,0,0,1,940.55,114.63Zm-36.95,0q0-16.3-9.74-26.62Q884,77.3,867.82,77.3q-14.86,0-14.86,4,0,5.69-.19,17.12t-.19,17.12q0,5.6.19,16.83t.19,16.93q0,4.15,15.43,4.15,16.69,0,26.24-11.09Q903.61,131.8,903.61,114.63Z"/><path class="cls-1" d="M1021.3,138.65q0,19.58-16.5,33.57-14.47,12.35-35.21,15.72a10.87,10.87,0,0,1-1.25.1q-2.22,0-9.84-13.55t-7.62-16.54q0-1.06,1.45-1.35,14-3.18,18.52-5.4,10-5,10-14.86,0-6.27-6.56-14Q962.93,109.23,962,107.78a39.28,39.28,0,0,1-6.66-22.19q0-17.65,16.3-29.33,13.31-9.64,32.7-12.54c.71-.06,1.25-.1,1.64-.1q1.45,0,2.32,2.32,2.51,7,11.67,25.47a2.28,2.28,0,0,1,.29,1q0,1.64-1.74,1.64a19.26,19.26,0,0,1-2.6-.29,19.46,19.46,0,0,0-2.8-.29,22.84,22.84,0,0,0-12.15,3.18q-6.27,3.67-6.27,10.23,0,5.88,6.95,14.47,12.25,15.43,12.83,16.21Q1021.3,128.14,1021.3,138.65Z"/><circle id="_Path_" data-name=" Path " class="cls-2" cx="111.12" cy="125" r="100"/><circle id="_Path_2" data-name=" Path 2" class="cls-3" cx="54.45" cy="75.1" r="16.66"/><circle id="_Path_3" data-name=" Path 3" class="cls-4" cx="90.78" cy="56.08" r="16.66"/><circle id="_Path_4" data-name=" Path 4" class="cls-5" cx="167.78" cy="75.1" r="16.66"/><circle id="_Path_5" data-name=" Path 5" class="cls-6" cx="131.45" cy="56.08" r="16.66"/><rect id="_Rectangle_" data-name=" Rectangle " class="cls-7" x="73.64" y="84.96" width="74.41" height="57.73" rx="10.2" ry="10.2"/><rect id="_Rectangle_2" data-name=" Rectangle 2" class="cls-7" x="82.62" y="152.95" width="56.45" height="48.75" rx="5" ry="5"/></svg>