<svg id="Layer_1" data-name="Layer 1" xmlns="http://www.w3.org/2000/svg" viewBox="0 0 1024 1024"><defs><style>.cls-1{fill:#fff;}</style></defs><title>BigfootDSLogoOutline_White</title><path class="cls-1" d="M2.5,519.28V505.72c.13-1,.3-2,.37-3,1.21-17,2.06-34,3.68-51a421.42,421.42,0,0,1,11.71-64.24q32.29-126.4,121-222.07a507.93,507.93,0,0,1,348.95-162c5.84-.25,11.67-.62,17.51-.94h14.06a27.67,27.67,0,0,0,3,.37,515,515,0,0,1,85,8.79,497.9,497.9,0,0,1,109,33.75q128,56.59,209.92,170a501.65,501.65,0,0,1,72.56,145.32A455,455,0,0,1,1017,440c2,15.75,3.15,31.59,4.56,47.4.51,5.74.66,11.51,1,17.26v15.57c-.12,1.07-.28,2.14-.34,3.22-.54,9.94-.93,19.89-1.61,29.82a466.26,466.26,0,0,1-8.72,62.24A501.57,501.57,0,0,1,974.56,728,508.74,508.74,0,0,1,538,1021.56c-5.76.26-11.51.63-17.26,1h-16c-1-.11-2-.31-3-.33a522,522,0,0,1-88.63-9.65A501.57,501.57,0,0,1,291.6,972,509.11,509.11,0,0,1,3.45,537C3.2,531.11,2.82,525.2,2.5,519.28Zm31.19-8.71C33.9,774.2,246.28,988.38,511.18,988.48,774.08,988.58,986,778,989,516.43,992,247.26,774.22,31.27,507.49,33.29,246.6,35.27,34.23,247.09,33.7,510.57Z"/><path class="cls-1" d="M512.26,611c-32.55-.28-65.11-.29-97.66-.93-25.23-.5-47.44-9.54-66.46-26.12a107.53,107.53,0,0,1-35.5-61,100.12,100.12,0,0,1-2.15-19.39c-.2-35.66-.4-71.32,0-107,.29-25.71,9.31-48.47,26-68s37.65-31.85,62.88-36.46a132.82,132.82,0,0,1,23.44-1.84c61.52-.14,123-.32,184.56,0,30.43.18,56.11,12.3,77.11,34.17,15.21,15.83,25,34.67,28.27,56.38,1.46,9.54,1.65,19.32,1.71,29,.17,30-.07,59.93,0,89.89,0,26.28-7.86,49.82-24.47,70.19-17.12,21-39,34.12-65.88,38.77-10.47,1.81-21,1.45-31.54,1.5-26.78.13-53.56,0-80.34,0Zm.16-35.43v.25h44.67c12.29,0,24.59,0,36.88-.29,8.26-.18,16.63-.11,24.74-1.41,17.68-2.84,32.2-11.76,43.63-25.47,10.94-13.11,16.88-28.27,17.16-45.44.23-14.21.42-28.42.43-42.63,0-18.56-.17-37.13-.28-55.69,0-8.2-.26-16.36-2.42-24.37-8.94-33-38.45-55.48-73.53-55.53q-89.13-.12-178.25,0c-6.25,0-12.63.08-18.73,1.25-36.69,7-61.6,37.45-61.6,74.82,0,31.63-.07,63.27.06,94.9a101.15,101.15,0,0,0,1.37,17.21c4.37,24.6,17.54,42.93,39.92,54.33a73.15,73.15,0,0,0,33.32,8C450.66,575.63,481.54,575.57,512.42,575.57Z"/><path class="cls-1" d="M511.88,625.47h82.6c9.68,0,19.42-.28,28.83,2.76,24.52,8,39,24.74,43.61,50a74.49,74.49,0,0,1,1,13.23c.08,46.61,0,93.23.14,139.84,0,9.73-.09,19.34-3.1,28.74a64,64,0,0,1-61,44.43q-77.45-.24-154.89-.4c-10.71,0-21.43.16-32.14-.06-31.14-.66-55.51-22.27-60-53.07a74.09,74.09,0,0,1-.84-10.49q-.08-75.45,0-150.89c0-16.14,4.61-30.78,15.43-43.11a59.06,59.06,0,0,1,35.19-19.6,106.33,106.33,0,0,1,17.71-1.31C453.63,625.4,482.76,625.47,511.88,625.47Zm-.21,244H603.3c16.9,0,28.4-10.17,29.51-27,.66-10.08.27-20.23.28-30.36q.06-60.38.07-120.75c0-10-2.63-18.86-11-25.17-6-4.54-12.93-5.88-20.31-5.87q-59.37.07-118.74,0c-21.59,0-43.18-.13-64.77.14-9.35.11-17.2,4-22.62,11.88-3.86,5.65-5,12.1-5,18.82V821.45c0,6.53-.18,13.06.07,19.58.67,17.37,12.21,28.39,29.46,28.38Z"/><path class="cls-1" d="M412.76,261.49c-54.38,0-96.93-43.23-96.89-98.41,0-52.14,44.21-95.72,97-95.69,53.91,0,97,43.93,96.91,98.65C509.66,218.52,466,261.51,412.76,261.49Zm68-96.17c0-37.85-30.13-68.82-67.06-68.86a68,68,0,0,0-.79,136c37.21.1,67.78-30.26,67.81-67.14Z"/><path class="cls-1" d="M788.37,355.48c-53.28,0-96.75-43.3-96.68-96.26.07-54,43.51-97.55,97.25-97.49,53.13.05,97,44.09,96.91,97.19C885.74,312.6,842.43,355.5,788.37,355.48Zm.64-165c-36.82-.32-68,30.49-68.31,67.61-.36,36.86,30.19,68.43,66.57,68.8,38,.38,69.11-29.75,69.46-67.31A68.36,68.36,0,0,0,789.1,190.5H789Z"/><path class="cls-1" d="M612.06,261.56c-53.12,0-96.83-43.7-96.83-96.87S559,67.41,611.8,67.39c54,0,97.07,43.25,97.09,97.54a96.5,96.5,0,0,1-96.37,96.63Zm-1.92-29.17c37.15,1,69.37-27.75,70.15-66.74.74-36.77-28.64-67.57-65.4-69.09-38.12-1.58-69.75,28.26-70.79,66.88-1,36.73,28,67.56,66,68.94Z"/><path class="cls-1" d="M236,355.49c-53.89,0-96.76-43-96.78-97.15,0-52.77,43.83-96.63,96.59-96.61A97,97,0,0,1,333,258.54v.14C333,312.69,290.18,355.49,236,355.49Zm68.36-96.8c0-37.09-30.79-67.87-68.07-68s-68.51,31-68.49,68S199,327,236.08,327s68.32-31.25,68.33-68.29Z"/></svg>