<svg id="Layer_1" data-name="Layer 1" xmlns="http://www.w3.org/2000/svg" viewBox="0 0 1024 250"><defs><style>.cls-1{fill:#231f20;}</style></defs><title>BigfootDSTitle</title><path class="cls-1" d="M134.83,145.85q0,21.4-12.91,36.78-13.65,16.11-34.68,16.11-7.87,0-23.68-.37T39.88,198q-5.78,0-17.4.49T5.07,199Q2,199,2,196.15q0-13.53,1.29-40.65t1.29-40.65q0-14.27-1.29-42.86T2,29.13q0-2.7,3.07-2.71,10.95,0,33,.12t33.09.12q25.83,0,41.2,9.59Q131,47.95,131,72.54q0,8.49-4.92,17.65T114.17,104q-3.57,2.34-3.57,3.07t3.57,2.71a38.5,38.5,0,0,1,15,15.19A41.88,41.88,0,0,1,134.83,145.85Zm-34.56-70.6q0-17.34-15.5-23.37-9.35-3.57-30.63-3.57-20.66,0-20.66,3.07,0,4.06-.37,12.18t-.37,12.3q0,2.83.12,8.73T33,93.45Q33,97,60.79,97,100.27,97,100.27,75.25Zm3.32,69.37q0-15-13.41-20.29-8.49-3.44-26.44-3.44-31,0-31,3.32v20.17q0,4.43.25,13.53t.25,13.65q0,1.23,7.87,1.84t23.37.61q19.43,0,27.92-5Q103.59,162.33,103.59,144.62Z"/><path class="cls-1" d="M187.6,51.88Q187.6,67,170.75,67q-17.1,0-17.1-15.13a14,14,0,0,1,5.29-11.19,18.64,18.64,0,0,1,23.68.12A14,14,0,0,1,187.6,51.88Zm-.86,33.33q0,9.47-1.17,28.6t-1.17,28.72q0,9,.37,26.87t.37,26.75q0,2.58-2.21,2.58h-24q-2.58,0-2.58-5,0-8.49.43-25.52t.43-25.64q0-9.59-1.41-28.78T154.39,85q0-2.09,2.58-2.09a57.29,57.29,0,0,1,6.83.61,57.13,57.13,0,0,0,6.95.61,57.16,57.16,0,0,0,6.95-.61,57.49,57.49,0,0,1,6.95-.61Q186.74,82.87,186.74,85.21Z"/><path class="cls-1" d="M319.45,84.35q0,14.76-.25,44.34T319,173q0,29.27-12.55,43.17Q293.25,231,264.35,231q-27.92,0-45.14-10.58-2.71-1.72-2.71-3,0,1.35,3.69-18.2.37-2.09,1.72-2.09a3.3,3.3,0,0,1,1.6.61q18.45,10.58,37,10.58,12.18,0,20.17-5.41,9.22-6.15,9.22-17.83,0-2.58-.49-11.56-13.65,16.6-34.68,16.6-22.76,0-37.39-16.36-14-15.74-14-38.74,0-23.37,13.53-39.73,14.39-17.46,37.39-17.47,20.29,0,32.22,15.62,2,2.58,2.83,2.58t1-2.21q0-1.6-.25-5.1t-.25-5.23q0-7.38,1.48-7.38,1.23,0,13.28,2.28t13.16,2.77Q319.45,81.77,319.45,84.35ZM289.93,135q0-13.77-7.5-23.37a27.41,27.41,0,0,0-43.17.12q-7.5,9.59-7.5,23.25,0,13.41,7.63,23.12a25.88,25.88,0,0,0,21.4,10.58q13,0,21.4-10.58A36,36,0,0,0,289.93,135Z"/><path class="cls-1" d="M405.55,41.3q0,1.48-2.21,1.72-6,.62-11.93,1.11-7,1-10.7,4.92-6,6.52-6,33.09,4.06,0,12.79.25t13.16.25q3,0,3,2.21,0,3.44.25,10.27t.25,10.15q0,2.34-2.46,2.34-4.31,0-13-.43t-12.91-.43v36.78q0,8.61.61,26.08t.61,26.08q0,3.32-2.46,3.32H351.92q-3.2,0-3.2-3.81V110.55q0-3.32-7.5-3.2-8.12.12-8.61-.61-.37-.37-.37-4.55,0-2.7-.25-8.06t-.25-8.06q0-2.58,15.62-3.44Q347,74.76,347,69.84q0-21.77,7.75-31.86,6.89-9.1,20.17-14.27A67.18,67.18,0,0,1,399.64,19a1.76,1.76,0,0,1,1.72,1.35q.12.25,2.15,10.39T405.55,41.3Z"/><path class="cls-1" d="M527.56,139.08q0,25.71-16.85,43.91Q493.49,201.81,468,201.81t-42.8-18.7Q408.37,165,408.38,139.33t16.85-43.79Q442.57,77.09,468,77.09t42.56,18.45Q527.56,113.5,527.56,139.08Zm-26,.25q0-15-9.22-25.58A30.68,30.68,0,0,0,468,102.55a31.18,31.18,0,0,0-24.48,11.07q-9.22,10.7-9.22,25.71a37.88,37.88,0,0,0,9.35,25.58q9.84,11.44,24.35,11.44t24.35-11.44A38.18,38.18,0,0,0,501.61,139.33Z"/><path class="cls-1" d="M656.33,139.08q0,25.71-16.85,43.91-17.22,18.82-42.68,18.82T554,183.12Q537.15,165,537.15,139.33T554,95.54q17.34-18.45,42.8-18.45t42.56,18.45Q656.33,113.5,656.33,139.08Zm-26,.25q0-15-9.22-25.58a30.68,30.68,0,0,0-24.35-11.19,31.18,31.18,0,0,0-24.48,11.07q-9.22,10.7-9.22,25.71a37.88,37.88,0,0,0,9.35,25.58q9.84,11.44,24.35,11.44t24.35-11.44A38.18,38.18,0,0,0,630.38,139.33Z"/><path class="cls-1" d="M742.19,176.35q0,2.71-.49,7.38-.62,5.78-.74,7.5a9.55,9.55,0,0,1-.37,2.71,5.16,5.16,0,0,1-2.34,1.72q-10.09,4.8-31.73,4.8-28.78,0-28.78-26.08,0-10.45.49-31.43t.49-31.43q0-5-5-5.41-4.55,0-9-.12-2.58-.61-2.58-10.09a60.59,60.59,0,0,1,.49-7.5q.37-3,3.94-3.57,3.07,0,6-.12,5.66-.25,5.66-5t-.31-15q-.31-10.08-.31-15.13,0-9,3.44-9,1.11,0,23.12,3.81,2.83.37,2.83,2.71,0,5.41-.8,16.24t-.8,16.24q0,3.57,3.32,3.57h29.52q2.09,0,2.09,1.48a40.76,40.76,0,0,1-.43,4.74,40.57,40.57,0,0,0-.43,4.86q0,1.84.12,5.66t.12,5.66q0,2.34-3.44,2.34-4.92,0-14.88-.68t-14.88-.68q-1,0-1.48,7-.62,8.74-.61,24.48V156.3q0,10.58,2,14.76,3,6.4,12.18,6.4a55.78,55.78,0,0,0,11.19-1.66,55.53,55.53,0,0,1,10.95-1.66Q742.19,174.14,742.19,176.35Z"/><path class="cls-1" d="M919.05,111.78q0,36.16-23.25,62.73-20.54,23.74-57.68,25-7.13.25-39.24.25-6,0-18.14-.37T762.6,199q-3.57,0-3.57-2.83,0-13.53,1-40.65t1-40.65q0-14.14-1-42.37t-1-42.25q0-2.58,3.57-3.07,8.73-1,28.66-1,37.88,0,49.08,1.11Q869.49,30.23,886,42q15.5,11.07,24.48,31A92.2,92.2,0,0,1,919.05,111.78Zm-47.11,0q0-20.78-12.42-33.95Q847,64.18,826.31,64.18q-18.94,0-18.94,5,0,7.26-.25,21.83t-.25,21.83q0,7.13.25,21.46t.25,21.59q0,5.29,19.68,5.29,21.28,0,33.45-14.14Q871.95,133.67,871.95,111.78Z"/><path class="cls-1" d="M1022,142.4q0,25-21,42.8-18.45,15.75-44.89,20a13.86,13.86,0,0,1-1.6.12q-2.83,0-12.55-17.28T932.21,167q0-1.35,1.84-1.72,17.83-4.06,23.62-6.89,12.79-6.39,12.79-18.94,0-8-8.36-17.83Q947.59,104.89,946.36,103a50.08,50.08,0,0,1-8.49-28.29q0-22.51,20.79-37.39,17-12.3,41.7-16c.9-.08,1.6-.12,2.09-.12q1.84,0,3,3,3.2,9,14.88,32.47a2.91,2.91,0,0,1,.37,1.23q0,2.09-2.21,2.09a24.56,24.56,0,0,1-3.32-.37,24.82,24.82,0,0,0-3.57-.37A29.12,29.12,0,0,0,996,63.32q-8,4.68-8,13,0,7.5,8.86,18.45,15.62,19.68,16.36,20.66Q1022,129,1022,142.4Z"/></svg>